<?xml version="1.0" encoding="utf-8"?>
<!-- Generator: Adobe Illustrator 18.0.0, SVG Export Plug-In . SVG Version: 6.00 Build 0)  -->
<!DOCTYPE svg PUBLIC "-//W3C//DTD SVG 1.1//EN" "http://www.w3.org/Graphics/SVG/1.1/DTD/svg11.dtd">
<svg version="1.1" id="Слой_1" xmlns="http://www.w3.org/2000/svg" xmlns:xlink="http://www.w3.org/1999/xlink" x="0px" y="0px"
	 viewBox="0 0 24.8 19.7" enable-background="new 0 0 24.8 19.7" xml:space="preserve">
<g>
	<g>
		<defs>
			<rect id="SVGID_1_" x="0" y="0" width="24.8" height="19.7"/>
		</defs>
		<clipPath id="SVGID_2_">
			<use xlink:href="#SVGID_1_"  overflow="visible"/>
		</clipPath>
		<g clip-path="url(#SVGID_2_)">
			<defs>
				<rect id="SVGID_3_" x="0" y="0" width="24.8" height="19.7"/>
			</defs>
			<clipPath id="SVGID_4_">
				<use xlink:href="#SVGID_3_"  overflow="visible"/>
			</clipPath>
			<path clip-path="url(#SVGID_4_)" fill="#A8A5A7" d="M15.1,10.8c2.1,0,4.6-2.1,4.6-5.4c0-3.3-2.1-5.4-5.2-5.4
				c-3.1,0-4.7,2.9-4.7,2.9S9.2,0,5.1,0C1.1,0,0,3.4,0,5.4s0.9,3.4,2,4.3c1.1,0.9,2.6,1.2,2.6,1.2H15.1z M14.5,3
				c1.3,0,2.4,1.1,2.4,2.4c0,1.3-1.1,2.4-2.4,2.4c-1.3,0-2.4-1.1-2.4-2.4C12.1,4.1,13.2,3,14.5,3 M2.7,5.4C2.7,4.1,3.8,3,5.2,3
				c1.3,0,2.4,1.1,2.4,2.4c0,1.3-1.1,2.4-2.4,2.4C3.8,7.8,2.7,6.7,2.7,5.4"/>
			<path clip-path="url(#SVGID_4_)" fill="#A8A5A7" d="M15.7,11.8H4.3c-1.1,0-1.1,1-1.1,1s0,5.3,0,6.1c0,0.9,1,0.8,1,0.8h11.1
				c1.1,0,1.1-0.8,1.1-0.8v-6C16.4,11.9,15.7,11.8,15.7,11.8 M11.2,18.3c-0.5,0-0.9-0.4-0.9-0.9c0-0.5,0.4-0.9,0.9-0.9
				c0.5,0,0.9,0.4,0.9,0.9C12.1,17.9,11.7,18.3,11.2,18.3 M13.8,18.3c-0.5,0-0.9-0.4-0.9-0.9c0-0.5,0.4-0.9,0.9-0.9
				c0.5,0,0.9,0.4,0.9,0.9C14.7,17.9,14.3,18.3,13.8,18.3"/>
			<path clip-path="url(#SVGID_4_)" fill="#A8A5A7" d="M6.4,5.4c0-0.7-0.6-1.3-1.3-1.3S3.9,4.7,3.9,5.4c0,0.7,0.6,1.3,1.3,1.3
				S6.4,6.1,6.4,5.4"/>
			<path clip-path="url(#SVGID_4_)" fill="#A8A5A7" d="M14.5,6.7c0.7,0,1.3-0.6,1.3-1.3c0-0.7-0.6-1.3-1.3-1.3
				c-0.7,0-1.3,0.6-1.3,1.3C13.2,6.1,13.8,6.7,14.5,6.7"/>
			<path clip-path="url(#SVGID_4_)" fill="#A8A5A7" d="M17.8,12.7c-0.5,0.2-0.5,0.7-0.5,0.7s0,2.3,0,2.7c0,0.6,0.6,0.9,0.6,0.9
				s2.6,1.2,4,1.9V11C20.6,11.6,18.3,12.6,17.8,12.7"/>
			<path clip-path="url(#SVGID_4_)" fill="#A8A5A7" d="M24.8,18.2v-6.7c0-0.7-0.1-0.9-0.5-1.1c-0.4-0.2-1.3,0.1-1.3,0.1s0,0-0.1,0
				v8.7c0.8,0.3,1.4,0,1.6-0.1C24.9,18.9,24.8,18.2,24.8,18.2"/>
		</g>
	</g>
</g>
</svg>
